<?xml version="1.0" encoding="UTF-8"?>
<svg width="335px" height="61px" viewBox="0 0 335 61" version="1.1" xmlns="http://www.w3.org/2000/svg" xmlns:xlink="http://www.w3.org/1999/xlink">
    <!-- Generator: Sketch Beta 40.2 (33825) - http://www.bohemiancoding.com/sketch -->
    <title>Slice 1</title>
    <desc>Created with Sketch Beta.</desc>
    <defs></defs>
    <g id="Page-1" stroke="none" stroke-width="1" fill="none" fill-rule="evenodd">
        <g id="sfvideo">
            <path d="M13.1636535,52.7634087 C15.5946578,52.7634087 17.3672385,52.4706116 18.4814488,51.8850087 C19.5956591,51.2994058 20.1527559,50.2937115 20.1527559,48.8678957 C20.1527559,47.5439238 19.5576752,46.4491174 18.3674961,45.5834435 C17.1773169,44.7177696 15.2148168,43.7757268 12.479937,42.757287 C10.8086216,42.146223 9.27660539,41.4969774 7.88384252,40.8095304 C6.49107965,40.1220835 5.28825703,39.3200741 4.27533858,38.4034783 C3.26242013,37.4868824 2.46475882,36.3793456 1.88233071,35.0808348 C1.2999026,33.7823239 1.00869291,32.1910355 1.00869291,30.3069217 C1.00869291,26.6405382 2.35078973,23.7507584 5.03502362,21.6374957 C7.71925752,19.5242329 11.3657092,18.4676174 15.9744882,18.4676174 C18.3042006,18.4676174 20.5325878,18.6840326 22.6597165,19.1168696 C24.7868453,19.5497065 26.3821679,19.9698067 27.4457323,20.3771826 L25.7744252,27.8626783 C24.7615067,27.4043803 23.4700551,26.9842802 21.9000315,26.6023652 C20.3300079,26.2204503 18.506782,26.0294957 16.4302992,26.0294957 C14.5564001,26.0294957 13.0370452,26.3477533 11.872189,26.9842783 C10.7073328,27.6208032 10.1249134,28.6010369 10.1249134,29.9250087 C10.1249134,30.5869946 10.238865,31.1725888 10.4667717,31.6818087 C10.6946783,32.1910286 11.0871783,32.66205 11.6442835,33.094887 C12.2013886,33.5277239 12.9357435,33.9605544 13.8473701,34.3933913 C14.7589967,34.8262283 15.8731903,35.271789 17.1899843,35.730087 C19.3677589,36.5448389 21.2163074,37.3468482 22.735685,38.1361391 C24.2550627,38.92543 25.5085305,39.8165516 26.496126,40.8095304 C27.4837215,41.8025093 28.205415,42.9355067 28.6612283,44.2085565 C29.1170416,45.4816064 29.3449449,47.0092433 29.3449449,48.791513 C29.3449449,52.6106626 27.9395416,55.5004424 25.1286929,57.4609391 C22.3178442,59.4214359 18.3042151,60.4016696 13.087685,60.4016696 C9.59311639,60.4016696 6.78230985,60.1088725 4.6551811,59.5232696 C2.52805236,58.9376666 1.03402005,58.4666453 0.17303937,58.1101913 L1.76837795,50.3955478 C3.13581786,50.9556898 4.76912436,51.4903627 6.66834646,51.9995826 C8.56756855,52.5088025 10.7326493,52.7634087 13.1636535,52.7634087 L13.1636535,52.7634087 Z M54.1106772,0.135791304 C56.2378059,0.135791304 58.1116769,0.326745917 59.7323465,0.70866087 C61.353016,1.09057582 62.5684999,1.43429412 63.3788346,1.73982609 L61.6315591,9.37808696 C60.7705784,8.97071101 59.7703364,8.63972301 58.6308031,8.38511304 C57.4912699,8.13050307 56.2631247,8.0032 54.9463307,8.0032 C53.477599,8.0032 52.2367925,8.21961523 51.223874,8.65245217 C50.2109556,9.08528912 49.400633,9.68361357 48.7928819,10.4474435 C48.1851308,11.2112734 47.7546469,12.1405858 47.5014173,13.2354087 C47.2481877,14.3302316 47.1215748,15.5141502 47.1215748,16.7872 L47.1215748,19.4605913 L61.5555906,19.4605913 L61.5555906,27.1752348 L47.1215748,27.1752348 L47.1215748,59.4086957 L37.9293858,59.4086957 L37.9293858,16.6344348 C37.9293858,11.4913134 39.2714826,7.45580594 41.9557165,4.5277913 C44.6399504,1.59977666 48.6915635,0.135791304 54.1106772,0.135791304 L54.1106772,0.135791304 Z" id="sf" fill="#BE3731"></path>
            <polygon id="&lt;" fill="#BE3731" points="87.789124 57.7303668 84.9328863 60.6767663 65.9407603 41.5811141 84.9328863 22.485462 87.789124 25.4691576 71.7645177 41.5811141"></polygon>
            <path d="M135.751661,24.6486413 L120.765687,59.4086957 L113.940391,59.4086957 L98.8802288,24.6486413 L104.963644,24.6486413 L117.353039,55.1196332 L129.668246,24.6486413 L135.751661,24.6486413 Z M162.236774,17.7115489 L155.337291,17.7115489 L155.337291,10.7371603 L162.236774,10.7371603 L162.236774,17.7115489 Z M169.136257,59.4086957 L148.400714,59.4086957 L148.400714,55.0450408 L156.227547,55.0450408 L156.227547,29.0122962 L148.400714,29.0122962 L148.400714,24.6486413 L161.346518,24.6486413 L161.346518,55.0450408 L169.136257,55.0450408 L169.136257,59.4086957 Z M215.726316,59.4086957 L210.607345,59.4086957 L210.607345,56.2012228 C209.148307,57.5190283 207.547099,58.5260155 205.803672,59.2222147 C204.060246,59.9184138 202.27357,60.2665082 200.44359,60.2665082 C197.698621,60.2665082 195.238077,59.8189583 193.061885,58.9238451 C190.885693,58.0287319 189.049558,56.7793219 187.553426,55.1755774 C186.057294,53.571833 184.907392,51.6510981 184.103685,49.4133152 C183.299978,47.1755323 182.89813,44.7264399 182.89813,42.0659647 C182.89813,39.4303537 183.299978,36.9874773 184.103685,34.7372622 C184.907392,32.4870472 186.057294,30.5600963 187.553426,28.9563519 C189.049558,27.3526075 190.885693,26.0969814 193.061885,25.1894361 C195.238077,24.2818908 197.698621,23.828125 200.44359,23.828125 C202.27357,23.828125 204.060246,24.1575714 205.803672,24.8164742 C207.547099,25.4753769 209.148307,26.4637162 210.607345,27.7815217 L210.607345,15.1008152 L203.707862,15.1008152 L203.707862,10.7371603 L215.726316,10.7371603 L215.726316,59.4086957 Z M210.607345,32.7419158 C209.148307,31.1257392 207.559464,29.9571368 205.840766,29.2360734 C204.122069,28.51501 202.2983,28.1544837 200.369402,28.1544837 C198.341587,28.1544837 196.554911,28.51501 195.00932,29.2360734 C193.463729,29.9571368 192.171634,30.9392601 191.132997,32.1824728 C190.09436,33.4256856 189.309212,34.8864386 188.777528,36.5647758 C188.245845,38.243113 187.980007,40.0768243 187.980007,42.0659647 C187.980007,44.0551051 188.245845,45.8888163 188.777528,47.5671535 C189.309212,49.2454907 190.09436,50.7062438 191.132997,51.9494565 C192.171634,53.1926693 193.463729,54.1747926 195.00932,54.895856 C196.554911,55.6169194 198.341587,55.9774457 200.369402,55.9774457 C204.276656,55.9774457 207.689269,54.423453 210.607345,51.3154212 L210.607345,32.7419158 Z M229.525283,43.8188859 C229.896225,47.4987956 231.231595,50.4327336 233.531435,52.620788 C235.831274,54.8088425 238.823493,55.9028533 242.508182,55.9028533 C245.104774,55.9028533 247.416944,55.3682798 249.444759,54.2991168 C251.472574,53.2299539 252.993413,51.8997362 254.00732,50.3084239 L257.568344,52.7699728 C255.837282,55.2066698 253.772404,57.065245 251.373647,58.3457541 C248.97489,59.6262632 246.019764,60.2665082 242.508182,60.2665082 C239.837401,60.2665082 237.389221,59.8189583 235.16357,58.9238451 C232.937919,58.0287319 231.015233,56.7793219 229.395454,55.1755774 C227.775675,53.571833 226.520674,51.6635301 225.630413,49.4506114 C224.740153,47.2376927 224.29503,44.7761684 224.29503,42.0659647 C224.29503,39.4303537 224.696877,36.9999092 225.500584,34.7745584 C226.304292,32.5492076 227.466559,30.6222568 228.98742,28.9936481 C230.508281,27.3650394 232.35678,26.0969814 234.532972,25.1894361 C236.709164,24.2818908 239.144979,23.828125 241.84049,23.828125 C244.783295,23.828125 247.355119,24.3254026 249.556041,25.3199728 C251.756962,26.314543 253.593097,27.6882725 255.064499,29.4412024 C256.535902,31.1941324 257.623981,33.2889144 258.328771,35.7256114 C259.03356,38.1623084 259.38595,40.8600396 259.38595,43.8188859 L229.525283,43.8188859 Z M254.00732,39.455231 C253.438543,35.651 252.066079,32.8165175 249.889887,30.9516984 C247.713695,29.0868793 245.030589,28.1544837 241.84049,28.1544837 C240.208346,28.1544837 238.699872,28.4217704 237.315022,28.9563519 C235.930173,29.4909334 234.706083,30.2554977 233.642717,31.2500679 C232.57935,32.2446381 231.689103,33.4443204 230.971949,34.8491508 C230.254795,36.2539812 229.797307,37.7893259 229.599471,39.455231 L254.00732,39.455231 Z M301.376353,42.1405571 C301.376353,44.8507608 300.949777,47.3122851 300.09661,49.5252038 C299.243444,51.7381225 298.019355,53.6339935 296.424305,55.2128736 C294.829255,56.7917538 292.918933,58.0287319 290.693282,58.9238451 C288.467632,59.8189583 285.982359,60.2665082 283.237389,60.2665082 C280.541879,60.2665082 278.081335,59.8189583 275.855684,58.9238451 C273.630033,58.0287319 271.719711,56.7917538 270.124662,55.2128736 C268.529612,53.6339935 267.305522,51.7381225 266.452356,49.5252038 C265.59919,47.3122851 265.172613,44.8507608 265.172613,42.1405571 C265.172613,39.5049461 265.59919,37.0496377 266.452356,34.7745584 C267.305522,32.4994791 268.529612,30.5600963 270.124662,28.9563519 C271.719711,27.3526075 273.630033,26.0969814 275.855684,25.1894361 C278.081335,24.2818908 280.541879,23.828125 283.237389,23.828125 C285.982359,23.828125 288.467632,24.2818908 290.693282,25.1894361 C292.918933,26.0969814 294.829255,27.3526075 296.424305,28.9563519 C298.019355,30.5600963 299.243444,32.4994791 300.09661,34.7745584 C300.949777,37.0496377 301.376353,39.5049461 301.376353,42.1405571 L301.376353,42.1405571 Z M296.294476,42.1405571 C296.294476,40.1514167 296.003909,38.3177054 295.422767,36.6393682 C294.841625,34.961031 293.982289,33.487846 292.844734,32.219769 C291.707179,30.951692 290.328533,29.9571368 288.708754,29.2360734 C287.088974,28.51501 285.265205,28.1544837 283.237389,28.1544837 C281.209574,28.1544837 279.385804,28.51501 277.766025,29.2360734 C276.146246,29.9571368 274.779964,30.951692 273.667138,32.219769 C272.554313,33.487846 271.707342,34.961031 271.1262,36.6393682 C270.545057,38.3177054 270.254491,40.1514167 270.254491,42.1405571 C270.254491,44.1296974 270.545057,45.9634087 271.1262,47.6417459 C271.707342,49.3200831 272.554313,50.7684042 273.667138,51.9867527 C274.779964,53.2051012 276.146246,54.1623606 277.766025,54.8585598 C279.385804,55.5547589 281.209574,55.9028533 283.237389,55.9028533 C285.265205,55.9028533 287.088974,55.5547589 288.708754,54.8585598 C290.328533,54.1623606 291.707179,53.2051012 292.844734,51.9867527 C293.982289,50.7684042 294.841625,49.3200831 295.422767,47.6417459 C296.003909,45.9634087 296.294476,44.1296974 296.294476,42.1405571 L296.294476,42.1405571 Z" id="video" fill="#6D6E6F"></path>
            <polygon id="&gt;" fill="#BE3731" points="334.57548 41.5811141 315.583354 60.6767663 312.690022 57.7303668 328.714628 41.5811141 312.690022 25.4691576 315.583354 22.485462"></polygon>
        </g>
    </g>
</svg>